<mxfile host="app.diagrams.net" agent="Mozilla/5.0 (Windows NT 10.0; Win64; x64) AppleWebKit/537.36 (KHTML, like Gecko) Chrome/137.0.0.0 Safari/537.36" version="27.1.6">
  <diagram name="Page-1" id="ND6SOPRFW4xS99WXPbeX">
    <mxGraphModel dx="1097" dy="512" grid="1" gridSize="10" guides="1" tooltips="1" connect="1" arrows="1" fold="1" page="1" pageScale="1" pageWidth="850" pageHeight="1100" math="0" shadow="0">
      <root>
        <mxCell id="0" />
        <mxCell id="1" parent="0" />
        <mxCell id="oEk4dQv7v8wZ3xW35CP3-8" value="" style="rounded=0;whiteSpace=wrap;html=1;" vertex="1" parent="1">
          <mxGeometry x="10" y="50" width="470" height="280" as="geometry" />
        </mxCell>
        <mxCell id="oEk4dQv7v8wZ3xW35CP3-5" style="edgeStyle=orthogonalEdgeStyle;rounded=0;orthogonalLoop=1;jettySize=auto;html=1;" edge="1" parent="1" source="oEk4dQv7v8wZ3xW35CP3-4" target="oEk4dQv7v8wZ3xW35CP3-6">
          <mxGeometry relative="1" as="geometry">
            <mxPoint x="280" y="155" as="targetPoint" />
          </mxGeometry>
        </mxCell>
        <mxCell id="oEk4dQv7v8wZ3xW35CP3-4" value="" style="rounded=0;whiteSpace=wrap;html=1;" vertex="1" parent="1">
          <mxGeometry x="20" y="70" width="170" height="170" as="geometry" />
        </mxCell>
        <mxCell id="oEk4dQv7v8wZ3xW35CP3-1" value="" style="rounded=0;whiteSpace=wrap;html=1;" vertex="1" parent="1">
          <mxGeometry x="570" y="60" width="160" height="210" as="geometry" />
        </mxCell>
        <mxCell id="oEk4dQv7v8wZ3xW35CP3-2" value="Client Side" style="rounded=0;whiteSpace=wrap;html=1;" vertex="1" parent="1">
          <mxGeometry x="40" y="160" width="120" height="60" as="geometry" />
        </mxCell>
        <mxCell id="oEk4dQv7v8wZ3xW35CP3-3" value="Server&lt;span style=&quot;background-color: transparent; color: light-dark(rgb(0, 0, 0), rgb(255, 255, 255));&quot;&gt;&amp;nbsp;Side&lt;/span&gt;" style="rounded=0;whiteSpace=wrap;html=1;" vertex="1" parent="1">
          <mxGeometry x="40" y="80" width="120" height="60" as="geometry" />
        </mxCell>
        <mxCell id="oEk4dQv7v8wZ3xW35CP3-6" value="Published&amp;nbsp;" style="rounded=0;whiteSpace=wrap;html=1;" vertex="1" parent="1">
          <mxGeometry x="220" y="125" width="120" height="145" as="geometry" />
        </mxCell>
        <mxCell id="oEk4dQv7v8wZ3xW35CP3-7" value="WWWroot" style="rounded=0;whiteSpace=wrap;html=1;" vertex="1" parent="1">
          <mxGeometry x="240" y="210" width="90" height="40" as="geometry" />
        </mxCell>
        <mxCell id="oEk4dQv7v8wZ3xW35CP3-9" value="Fixed Assets" style="text;html=1;align=center;verticalAlign=middle;whiteSpace=wrap;rounded=0;" vertex="1" parent="1">
          <mxGeometry x="325" y="60" width="100" height="30" as="geometry" />
        </mxCell>
        <mxCell id="oEk4dQv7v8wZ3xW35CP3-10" value="" style="rounded=0;whiteSpace=wrap;html=1;" vertex="1" parent="1">
          <mxGeometry x="10" y="350" width="470" height="280" as="geometry" />
        </mxCell>
        <mxCell id="oEk4dQv7v8wZ3xW35CP3-11" value="Supervisor" style="text;html=1;align=center;verticalAlign=middle;whiteSpace=wrap;rounded=0;" vertex="1" parent="1">
          <mxGeometry x="330" y="380" width="100" height="30" as="geometry" />
        </mxCell>
        <mxCell id="oEk4dQv7v8wZ3xW35CP3-12" style="edgeStyle=orthogonalEdgeStyle;rounded=0;orthogonalLoop=1;jettySize=auto;html=1;" edge="1" parent="1" source="oEk4dQv7v8wZ3xW35CP3-13" target="oEk4dQv7v8wZ3xW35CP3-16">
          <mxGeometry relative="1" as="geometry">
            <mxPoint x="310" y="475" as="targetPoint" />
          </mxGeometry>
        </mxCell>
        <mxCell id="oEk4dQv7v8wZ3xW35CP3-13" value="" style="rounded=0;whiteSpace=wrap;html=1;" vertex="1" parent="1">
          <mxGeometry x="50" y="390" width="170" height="170" as="geometry" />
        </mxCell>
        <mxCell id="oEk4dQv7v8wZ3xW35CP3-14" value="Client Side" style="rounded=0;whiteSpace=wrap;html=1;" vertex="1" parent="1">
          <mxGeometry x="70" y="480" width="120" height="60" as="geometry" />
        </mxCell>
        <mxCell id="oEk4dQv7v8wZ3xW35CP3-15" value="Server&lt;span style=&quot;background-color: transparent; color: light-dark(rgb(0, 0, 0), rgb(255, 255, 255));&quot;&gt;&amp;nbsp;Side&lt;/span&gt;" style="rounded=0;whiteSpace=wrap;html=1;" vertex="1" parent="1">
          <mxGeometry x="70" y="400" width="120" height="60" as="geometry" />
        </mxCell>
        <mxCell id="oEk4dQv7v8wZ3xW35CP3-16" value="Published&amp;nbsp;" style="rounded=0;whiteSpace=wrap;html=1;" vertex="1" parent="1">
          <mxGeometry x="250" y="445" width="120" height="145" as="geometry" />
        </mxCell>
        <mxCell id="oEk4dQv7v8wZ3xW35CP3-17" value="WWWroot" style="rounded=0;whiteSpace=wrap;html=1;" vertex="1" parent="1">
          <mxGeometry x="265" y="530" width="90" height="40" as="geometry" />
        </mxCell>
      </root>
    </mxGraphModel>
  </diagram>
</mxfile>
